<?xml version="1.0" encoding="utf-8"?>
<svg id="Calque_2" data-name="Calque 2" xmlns="http://www.w3.org/2000/svg" viewBox="-423.705 0 1710.066 430.572">
  <defs>
    <linearGradient id="Dégradé_sans_nom_20" data-name="Dégradé sans nom 20" x1="218.68" y1="307.19" x2="604.43" y2="307.19" gradientUnits="userSpaceOnUse">
      <stop offset="0" stop-color="#06b706"/>
      <stop offset="1" stop-color="#aee8ae"/>
    </linearGradient>
    <radialGradient id="Dégradé_sans_nom_28" data-name="Dégradé sans nom 28" cx="511.74" cy="524.86" r="82.14" gradientUnits="userSpaceOnUse">
      <stop offset="0" stop-color="#06b706"/>
      <stop offset="0.47" stop-color="#07b707"/>
      <stop offset="0.64" stop-color="#0eb90e"/>
      <stop offset="0.77" stop-color="#1abc1a"/>
      <stop offset="0.86" stop-color="#2bc12b"/>
      <stop offset="0.95" stop-color="#41c741"/>
      <stop offset="1" stop-color="#53cd53"/>
    </radialGradient>
    <radialGradient id="Dégradé_sans_nom_28-2" data-name="Dégradé sans nom 28" cx="640.34" cy="491.48" r="84.92" href="#Dégradé_sans_nom_28"/>
    <radialGradient id="Dégradé_sans_nom_28-3" data-name="Dégradé sans nom 28" cx="722.72" cy="485.33" r="88.85" href="#Dégradé_sans_nom_28"/>
    <radialGradient id="Dégradé_sans_nom_28-4" data-name="Dégradé sans nom 28" cx="805.63" cy="485.33" r="88.85" href="#Dégradé_sans_nom_28"/>
    <radialGradient id="Dégradé_sans_nom_28-5" data-name="Dégradé sans nom 28" cx="935.8" href="#Dégradé_sans_nom_28"/>
  </defs>
  <g id="Calque_1-2" data-name="Calque 1" style="transform-origin: 505.4px 306.775px;" transform="matrix(1.661632, 0, 0, 0.66625, -83.8695, -90.404725)">
    <path d="M402.51,173.86c0,35.57-8.92,66.91-26.65,94.29-18.05,27.39-42.11,47.32-73.03,59.63-2.97,1.12-6.16,2.41-9.51,3.36h-.18c-.94.35-1.89.73-2.97.91-1.5.56-3.01.94-4.69,1.5-5.95,1.68-12.1,3.36-18.82,4.65-3.36.73-6.72,1.29-9.86,1.85-5.04.94-9.9,1.68-14.9,2.24-5.81.77-11.75,1.5-18.29,2.06h-.56c-3.88.38-7.45.73-11.37.94h-.17l-33.16-76.81h22.73c5.95,0,11.72-.17,16.96-.73,5.56-.38,10.81-1.12,15.63-2.06.38,0,.56,0,1.12-.17,4.86-.94,9.51-2.03,13.78-3.36h.21c3.92-1.29,7.45-2.59,10.98-4.27.73,0,1.12-.21,1.68-.56h.18c.94-.38,1.68-.77,2.62-1.33,2.41-1.12,4.83-2.41,7.06-3.88,1.89-.94,3.57-2.06,5.25-3.18,2.03-1.68,4.27-3.53,6.51-5.42,9.86-8.36,16.96-18.61,21.79-30.53,4.86-12.14,7.27-25.92,7.27-41.38,0-23.29-5.6-42.5-16.4-57.04v-.18c-7.24-9.69-16.75-17.52-28.85-23.29-3.01-1.68-6.16-2.97-9.51-4.09-3.36-1.29-6.89-2.41-10.46-3.36-14.34-3.92-31.48-5.98-51.24-5.98h-81.25v-.17H17.53V0h193.41c58.34,0,104.72,15.63,139.59,47.15,2.03,1.85,4.09,3.88,5.95,5.95,5.98,5.98,11.58,12.31,16.23,19.03,1.68,2.2,3.15,4.44,4.48,6.68,1.47,2.62,2.8,5.25,4.48,8.01,1.47,2.62,2.8,5.42,3.88,8.22,1.12,1.85,2.06,3.92,2.8,5.95,9.34,21.44,14.16,45.85,14.16,72.89Z" style="fill: #336; stroke-width: 0px;"/>
    <rect x="17.53" y="92.19" width="17.49" height="453.07" style="fill: #336; stroke-width: 0px;"/>
    <rect x="52.37" y="92.19" width="17.52" height="453.07" style="fill: #336; stroke-width: 0px;"/>
    <rect x="87.21" y="92.19" width="18.26" height="453.07" style="fill: #336; stroke-width: 0px;"/>
    <path d="M604.43.83l-257.91,612.72h-19.75l-101.38-236.11-3.35-8.01-3.35-7.64c22.69-1.18,60.6-8.62,81.44-14.72l4.85,11.37,8.01,19.01,22.18,51.81L517.59.83h86.84Z" style="fill: url(#Dégradé_sans_nom_20); stroke-width: 0px;"/>
    <path d="M0,592.77v18.26h122.25v-18.26H0Z" style="fill: #06b706; stroke-width: 0px;"/>
    <path d="M9.69,559.97v18.08h102.87v-18.08H9.69Z" style="fill: #06b706; stroke-width: 0px;"/>
    <g>
      <path d="M466.25,530.65c.71,41.8,27.4,59.01,58.31,59.01,22.14,0,35.48-3.86,47.08-8.78l5.27,22.13c-10.89,4.92-29.52,10.54-56.56,10.54-52.34,0-83.6-34.43-83.6-85.72s30.21-91.68,79.74-91.68c55.5,0,70.26,48.82,70.26,80.09,0,6.32-.71,11.24-1.06,14.4h-119.43ZM556.88,508.52c.34-19.67-8.08-50.23-42.86-50.23-31.27,0-44.96,28.8-47.42,50.23h90.28Z" style="fill: url(#Dégradé_sans_nom_28); stroke-width: 0px;"/>
      <path d="M659.48,392.24c.35,10.54-7.38,18.97-19.67,18.97-10.89,0-18.62-8.43-18.62-18.97s8.08-19.32,19.33-19.32,18.97,8.43,18.97,19.32ZM625.05,610.04v-170.02h30.91v170.02h-30.91Z" style="fill: url(#Dégradé_sans_nom_28-2); stroke-width: 0px;"/>
      <path d="M707.26,360.63h30.91v249.41h-30.91v-249.41Z" style="fill: url(#Dégradé_sans_nom_28-3); stroke-width: 0px;"/>
      <path d="M790.18,360.63h30.91v249.41h-30.91v-249.41Z" style="fill: url(#Dégradé_sans_nom_28-4); stroke-width: 0px;"/>
      <path d="M890.3,530.65c.71,41.8,27.4,59.01,58.32,59.01,22.13,0,35.47-3.86,47.07-8.78l5.27,22.13c-10.89,4.92-29.52,10.54-56.56,10.54-52.34,0-83.6-34.43-83.6-85.72s30.21-91.68,79.74-91.68c55.5,0,70.26,48.82,70.26,80.09,0,6.32-.71,11.24-1.06,14.4h-119.43ZM980.94,508.52c.34-19.67-8.08-50.23-42.86-50.23-31.27,0-44.96,28.8-47.42,50.23h90.28Z" style="fill: url(#Dégradé_sans_nom_28-5); stroke-width: 0px;"/>
    </g>
  </g>
</svg>